<svg width="300" height="300" viewBox="0 0 300 300" xmlns="http://www.w3.org/2000/svg">
  <rect width="300" height="300" fill="#f4f4f4" rx="15"/>
  <circle cx="150" cy="130" r="52" fill="#8b4513"/>
  <circle cx="138" cy="122" r="6" fill="#27ae60"/>
  <circle cx="162" cy="122" r="6" fill="#27ae60"/>
  <ellipse cx="150" cy="135" rx="3" ry="4" fill="#e74c3c"/>
  <path d="M145 145 Q150 150 155 145" stroke="#2c3e50" stroke-width="2" fill="none"/>
  <polygon points="125,88 135,65 145,88" fill="#8b4513"/>
  <polygon points="155,88 165,65 175,88" fill="#8b4513"/>
  <ellipse cx="150" cy="200" rx="38" ry="52" fill="#8b4513"/>
  <ellipse cx="128" cy="232" rx="9" ry="16" fill="#8b4513"/>
  <ellipse cx="172" cy="232" rx="9" ry="16" fill="#8b4513"/>
  <path d="M190 140 Q210 130 190 120" stroke="#8b4513" stroke-width="8" fill="none"/>
  <ellipse cx="120" cy="140" rx="6" ry="12" fill="#d4af37"/>
  <ellipse cx="180" cy="140" rx="6" ry="12" fill="#d4af37"/>
  <text x="150" y="280" text-anchor="middle" font-family="Arial" font-size="16" fill="#2c3e50">Maine Coon</text>
</svg>