<svg width="300" height="300" viewBox="0 0 300 300" xmlns="http://www.w3.org/2000/svg">
  <rect width="300" height="300" fill="#e8f5e8" rx="15"/>
  <ellipse cx="150" cy="170" rx="38" ry="50" fill="#e74c3c"/>
  <ellipse cx="150" cy="160" rx="25" ry="30" fill="#f1c40f"/>
  <circle cx="150" cy="125" r="30" fill="#2ecc71"/>
  <circle cx="145" cy="120" r="4" fill="#2c3e50"/>
  <circle cx="155" cy="120" r="4" fill="#2c3e50"/>
  <path d="M140 130 Q150 140 160 130" fill="#e67e22"/>
  <ellipse cx="125" cy="140" rx="10" ry="18" fill="#3498db" transform="rotate(-15 125 140)"/>
  <ellipse cx="175" cy="140" rx="10" ry="18" fill="#3498db" transform="rotate(15 175 140)"/>
  <ellipse cx="130" cy="210" rx="8" ry="15" fill="#e67e22"/>
  <ellipse cx="170" cy="210" rx="8" ry="15" fill="#e67e22"/>
  <path d="M185 160 Q200 155 195 140" stroke="#9b59b6" stroke-width="5" fill="none"/>
  <ellipse cx="150" cy="100" rx="8" ry="12" fill="#34495e"/>
  <text x="150" y="280" text-anchor="middle" font-family="Arial" font-size="16" fill="#2c3e50">Parrot</text>
</svg>